<?xml version="1.0" encoding="utf-8"?>
<!-- Generator: Adobe Illustrator 27.1.0, SVG Export Plug-In . SVG Version: 6.00 Build 0)  -->
<svg version="1.1" id="Capa_1" xmlns="http://www.w3.org/2000/svg" xmlns:xlink="http://www.w3.org/1999/xlink" x="0px" y="0px"
	 viewBox="0 0 649 374.31" style="enable-background:new 0 0 649 374.31;" xml:space="preserve">
<style type="text/css">
	.st0{fill:none;stroke:#000000;stroke-width:2;stroke-linecap:round;stroke-linejoin:round;stroke-miterlimit:10;}
</style>
<g>
	<path d="M0,374.31c4.96-8.65,9.47-16.56,14.02-24.45c7.15-12.41,14.14-24.91,21.52-37.18c24.94-41.49,61.77-62.86,110.11-63.56
		c35.49-0.51,70.99,0.04,106.48-0.16c23.76-0.13,41.8-10.75,54.02-31.08c5.83-9.7,11.36-19.57,17.5-30.18
		c-71.99,0-143.31,0-215.13,0c0.46-1.53,0.54-2.36,0.92-3.02c13.05-22.46,25.04-45.62,39.44-67.18
		c23.91-35.78,58.43-54.35,101.5-55.29c35.98-0.78,71.98-0.14,107.98-0.17c25.4-0.02,44.32-11.21,56.99-33.14
		c5.57-9.64,11.14-19.28,16.7-28.9c72.16,0,143.93,0,216.32,0c-0.58,1.55-0.85,2.77-1.46,3.81c-12,20.76-23.38,41.91-36.2,62.15
		c-24.14,38.1-59.39,58.1-104.41,59.23c-35.97,0.9-71.98,0.2-107.97,0.19c-25.02,0-43.75,10.92-56.34,32.45
		c-5.45,9.33-10.78,18.73-16.65,28.95c72.04,0,143.35,0,215.64,0c-1.48,2.83-2.38,4.73-3.43,6.55
		c-10.82,18.75-21.33,37.69-32.57,56.18c-24.78,40.8-61.16,62.11-109.01,62.73c-34.49,0.45-68.99,0.27-103.48,0.05
		c-26.82-0.17-46.69,11.11-59.7,34.61c-5.08,9.16-10.47,18.15-15.83,27.4C144.93,374.31,73.02,374.31,0,374.31z"/>
	<path class="st0" d="M117,182.19c-2.67,1.33-5.33,2.67-8,4"/>
	<path class="st0" d="M648,1.19c-2.67,1.33-5.33,2.67-8,4"/>
</g>
</svg>
